HIERARCHY
ROOT Hips
{
	OFFSET 0.00000 0.00000 0.00000
	CHANNELS 6 Xposition Yposition Zposition Yrotation Zrotation Xrotation 
	JOINT Lumbar
	{
		OFFSET 0 0 0
		CHANNELS 3 Zrotation Xrotation Yrotation
		JOINT Neck
		{
			OFFSET 0.00 0.2701 0.00
			CHANNELS 3 Zrotation Xrotation Yrotation
			End Site
			{
				OFFSET 0.00 0.1379 0.00
			}
		}
		JOINT RightShoulder
		{
			OFFSET 0.0119 0.2289 0.1181
			CHANNELS 3 Zrotation Xrotation Yrotation
			JOINT RightElbow
			{
				OFFSET 0.00 -0.1475 0.00
				CHANNELS 2 Zrotation Yrotation
				JOINT RightWrist
				{
					OFFSET 0.00 -0.1605 0.00
					CHANNELS 2 Zrotation Xrotation
					End Site
					{
						OFFSET 0.0040 -0.1068 0.0006
					}
				}
			}
		}
		JOINT LeftShoulder
		{
			OFFSET 0.0119 0.2289 -0.1181
			CHANNELS 3 Zrotation Xrotation Yrotation
			JOINT LeftElbow
			{
				OFFSET 0.00 -0.1475 0.00
				CHANNELS 2 Zrotation Yrotation
				JOINT LeftWrist
				{
					OFFSET 0.00 -0.1605 0.00
					CHANNELS 2 Zrotation Xrotation
					End Site
					{
						OFFSET 0.0040 -0.1068 -0.0006
					}
				}
			}
		}
	}
	JOINT RightHip
	{
		OFFSET 0.0316 -0.0424 0.0458
		CHANNELS 3 Zrotation Xrotation Yrotation
		JOINT RightKnee
		{
			OFFSET 0.00 -0.2438 0.00
			CHANNELS 1 Zrotation
			JOINT RightAnkle
			{
				OFFSET 0.00 -0.2449 0.00
				CHANNELS 3 Zrotation Xrotation Yrotation
				End Site
				{
					OFFSET 0.1237 -0.0542 0.0051
				}
			}
		}
	}
	JOINT LeftHip
	{
		OFFSET 0.0316 -0.0424 -0.0458
		CHANNELS 3 Zrotation Xrotation Yrotation
		JOINT LeftKnee
		{
			OFFSET 0.00 -0.2438 0.00
			CHANNELS 1 Zrotation
			JOINT LeftAnkle
			{
				OFFSET 0.00 -0.2449 0.00
				CHANNELS 3 Zrotation Xrotation Yrotation
				End Site
				{
					OFFSET 0.1237 -0.0542 -0.0051
				}
			}
		}
	}
}
MOTION
Frames: 35
Frame Time: 0.02
0 0.57926 0 180.04108 0 3.19346 8.5895 -0.66838 -2.04007 -24.71584 2.231 2.56262 16.91114 -12.62057 3.10358 10.81556 83.91851 1.46699 2.14353 18.96416 4.91867 -2.81134 8.12918 -76.08757 -4.46892 -1.58437 1.51091 4.5367 16.99106 -18.13483 10.27186 -7.92121 -11.1732 0.08224 -4.99634 -9.58524 -12.72328 7.19306 5.85759 9.75682
-0.00033 0.57923 -7e-05 179.9828 0 3.18713 8.64784 -0.66608 -2.01463 -24.83356 2.23782 2.59061 17.04762 -12.65377 3.15608 10.79663 83.94069 1.43892 2.16705 19.09857 4.88362 -2.69183 8.12453 -76.08953 -4.46689 -1.57035 1.47843 4.5555 17.05669 -18.13337 10.2765 -7.93439 -11.19852 0.04844 -4.98785 -9.53679 -12.73678 7.21035 5.88019 9.77667
-0.00067 0.5792 -0.00014 179.92472 0 3.18085 8.70604 -0.66392 -1.98925 -24.95159 2.24452 2.61851 17.18404 -12.68684 3.20919 10.77826 83.96275 1.41108 2.19002 19.23297 4.84887 -2.57249 8.12036 -76.09178 -4.46496 -1.55597 1.4461 4.57421 17.12186 -18.13211 10.28123 -7.94754 -11.22351 0.01472 -4.97942 -9.48855 -12.75031 7.22767 5.90266 9.79642
-0.001 0.57917 -0.0002 179.86666 0 3.17475 8.76379 -0.66211 -1.96369 -25.06858 2.25075 2.64606 17.3187 -12.71949 3.26482 10.76203 83.98536 1.38388 2.2106 19.36583 4.81513 -2.45263 8.11826 -76.09533 -4.46361 -1.53963 1.41409 4.59257 17.1857 -18.13133 10.28625 -7.9605 -11.24694 -0.01927 -4.97105 -9.44018 -12.76316 7.2449 5.92466 9.81567
-0.00133 0.57913 -0.00027 179.8082 0 3.16772 8.82334 -0.65822 -1.93886 -25.18679 2.25942 2.67518 17.45904 -12.7541 3.3066 10.73459 84.00597 1.35327 2.24336 19.50328 4.7762 -2.33545 8.10543 -76.09214 -4.4594 -1.5332 1.38041 4.61261 17.25645 -18.12765 10.28958 -7.97424 -11.27805 -0.05219 -4.96228 -9.39191 -12.7785 7.26215 5.94894 9.83721
-0.00166 0.5791 -0.00034 179.75083 0 3.16264 8.87945 -0.65887 -1.91264 -25.30525 2.26295 2.7011 17.58975 -12.7847 3.378 10.73082 84.03018 1.32993 2.25067 19.63335 4.74817 -2.21278 8.11515 -76.10309 -4.46111 -1.50613 1.35028 4.62919 17.31262 -18.13035 10.2966 -7.98645 -11.29324 -0.0871 -4.95439 -9.34387 -12.78931 7.27966 5.96852 9.85413
-0.00199 0.57908 -0.00042 179.69333 0 3.16328 8.9239 -0.67141 -1.88063 -25.40635 2.25124 2.71732 17.67886 -12.80316 3.53277 10.79511 84.07099 1.32679 2.18224 19.72849 4.75189 -2.0702 8.19109 -76.15606 -4.48089 -1.41672 1.32979 4.63522 17.32768 -18.14938 10.31369 -7.99365 -11.2602 -0.13067 -4.94857 -9.29173 -12.78119 7.29582 5.97396 9.85634
-0.00232 0.57906 -0.0005 179.63739 0 3.16586 8.96555 -0.68865 -1.84755 -25.51352 2.23423 2.73049 17.7635 -12.81766 3.71705 10.88277 84.11451 1.33106 2.08903 19.82129 4.76645 -1.92262 8.28912 -76.22288 -4.50629 -1.30746 1.31291 4.63791 17.32825 -18.17521 10.33468 -7.99955 -11.2118 -0.17573 -4.94374 -9.24059 -12.76967 7.31273 5.97496 9.8543
-0.00265 0.57903 -0.00058 179.58276 0 3.1673 9.00958 -0.70419 -1.81614 -25.6267 2.22066 2.7456 17.85701 -12.83488 3.88735 10.95819 84.15223 1.33178 2.01065 19.92179 4.77484 -1.78042 8.3746 -76.28141 -4.52813 -1.21052 1.29448 4.6428 17.33595 -18.19866 10.35387 -8.00645 -11.17319 -0.21803 -4.93865 -9.19206 -12.76389 7.3306 5.97869 9.85544
-0.00297 0.57901 -0.00066 179.5198 0 3.16969 9.04787 -0.71794 -1.77967 -25.69302 2.20391 2.75829 17.91177 -12.8488 4.06116 11.04087 84.20826 1.33296 1.91731 19.98471 4.78799 -1.62578 8.47082 -76.34806 -4.55449 -1.09927 1.27563 4.64492 17.34112 -18.21866 10.37274 -8.01123 -11.12282 -0.26896 -4.9326 -9.13074 -12.74043 7.34268 5.97912 9.85111
-0.00331 0.57899 -0.00074 179.47433 0 3.17071 9.09878 -0.73649 -1.75358 -25.87074 2.19108 2.7754 18.05855 -12.86793 4.23324 11.11345 84.22801 1.33533 1.84914 20.13733 4.79443 -1.49504 8.54972 -76.40148 -4.57243 -1.01359 1.25858 4.65187 17.34839 -18.24804 10.39375 -8.02058 -11.09319 -0.30247 -4.92899 -9.09611 -12.75297 7.36734 5.98573 9.85738
-0.00368 0.57897 -0.00081 179.47885 0 3.16626 9.17262 -0.76753 -1.75586 -26.24195 2.20343 2.8045 18.34801 -12.90919 4.40536 11.15769 84.13638 1.33561 1.85676 20.42889 4.77398 -1.43898 8.57777 -76.4117 -4.56851 -0.9985 1.24509 4.67415 17.36262 -18.2965 10.41483 -8.0387 -11.12532 -0.28546 -4.92992 -9.13658 -12.86581 7.42356 6.00723 9.89207
-0.00406 0.57895 -0.00089 179.50063 0 3.16055 9.2606 -0.80313 -1.76888 -26.74121 2.21802 2.83841 18.74642 -12.95498 4.57229 11.19051 84.01005 1.33742 1.8902 20.82652 4.74719 -1.40602 8.58757 -76.40887 -4.5553 -1.01029 1.23343 4.70117 17.37976 -18.35493 10.43875 -8.06211 -11.17861 -0.25109 -4.93361 -9.20359 -13.015 7.49284 6.03561 9.93786
-0.00445 0.57893 -0.00096 179.51303 0 3.15631 9.35171 -0.83644 -1.77715 -27.26192 2.2223 2.8706 19.17486 -12.99372 4.73393 11.22441 83.90662 1.3409 1.91203 21.25323 4.72741 -1.35722 8.60373 -76.41397 -4.54467 -1.0135 1.22123 4.72527 17.39735 -18.41241 10.46472 -8.08596 -11.22191 -0.22618 -4.93734 -9.25736 -13.14748 7.55827 6.06312 9.97987
-0.00479 0.57892 -0.00104 179.53157 0 3.1486 9.4066 -0.87099 -1.78419 -27.46668 2.26337 2.90031 19.28716 -13.05168 4.92963 11.27423 83.77347 1.33484 1.93374 21.37281 4.69172 -1.32966 8.6273 -76.41054 -4.5416 -1.00246 1.20778 4.75255 17.40763 -18.45579 10.47714 -8.09826 -11.26672 -0.19526 -4.93574 -9.31609 -13.2806 7.61546 6.08136 10.01663
-0.00524 0.57889 -0.0011 179.54188 0 3.14748 9.53504 -0.90378 -1.79714 -28.33467 2.23124 2.93684 20.059 -13.07289 5.05184 11.29067 83.69358 1.34866 1.96054 22.13318 4.68612 -1.26483 8.6327 -76.4223 -4.51994 -1.0255 1.19752 4.7743 17.43316 -18.52985 10.51785 -8.13527 -11.31302 -0.17198 -4.94575 -9.37082 -13.42112 7.69224 6.12011 10.0667
-0.00602 0.57881 -0.0011 179.52124 0 3.16747 9.90762 -0.93247 -1.81647 -31.2139 1.97325 2.98593 22.83454 -12.97404 4.98364 11.19328 83.77302 1.41988 2.00979 24.84026 4.77767 -1.08057 8.57521 -76.47366 -4.45334 -1.15647 1.19381 4.78021 17.50738 -18.69399 10.64049 -8.2442 -11.36342 -0.1806 -4.98835 -9.40745 -13.57211 7.82516 6.21781 10.15344
-0.00689 0.57871 -0.00108 179.49248 0 3.19369 10.34496 -0.95899 -1.8423 -34.71332 1.64666 3.04192 26.22811 -12.84207 4.84194 11.06681 83.9069 1.51092 2.06119 28.14781 4.89766 -0.86089 8.50245 -76.54202 -4.36715 -1.31792 1.19354 4.78022 17.59542 -18.88697 10.79046 -8.37671 -11.41364 -0.19643 -5.04227 -9.43908 -13.72905 7.97607 6.33504 10.2525
-0.00768 0.57862 -0.00106 179.47 0 3.21532 10.7241 -0.98506 -1.87052 -37.79463 1.3657 3.09906 29.20534 -12.73575 4.72313 10.96993 84.01296 1.59037 2.1014 31.05075 4.99598 -0.66358 8.44873 -76.60576 -4.28766 -1.45104 1.19291 4.78263 17.67257 -19.06182 10.92516 -8.49539 -11.46071 -0.20444 -5.09023 -9.47361 -13.88458 8.11567 6.44092 10.34452
-0.00863 0.57852 -0.00108 179.43706 0 3.24419 11.22716 -1.0168 -1.87838 -41.46965 1.02057 3.14136 32.77035 -12.58171 4.63812 10.80479 84.12942 1.67891 2.18339 34.52504 5.12972 -0.43728 8.3462 -76.65466 -4.21875 -1.64275 1.18739 4.78668 17.7698 -19.25899 11.07269 -8.62811 -11.52242 -0.23039 -5.14187 -9.50714 -14.03785 8.27014 6.55808 10.44396
-0.00928 0.57844 -0.00101 179.42394 0 3.25963 11.48482 -1.03689 -1.92778 -44.03616 0.79685 3.21227 35.24133 -12.52309 4.47841 10.77349 84.23933 1.75557 2.18131 36.93606 5.19814 -0.26681 8.33828 -76.74027 -4.12126 -1.72366 1.1927 4.78548 17.82782 -19.41541 11.19906 -8.73623 -11.553 -0.22172 -5.1883 -9.54032 -14.19435 8.39628 6.65554 10.52954
-0.00908 0.57839 -0.00067 179.46554 0 3.2354 11.07099 -1.01866 -2.10946 -43.54206 0.88884 3.39334 34.67266 -12.7017 4.01828 11.13273 84.30274 1.77331 1.92231 36.3902 5.06601 -0.21929 8.62683 -76.9081 -3.96903 -1.45284 1.2286 4.77447 17.77965 -19.46139 11.26816 -8.77838 -11.50032 -0.10876 -5.21936 -9.58132 -14.37931 8.45259 6.70049 10.58426
-0.00856 0.57837 -0.00024 179.52748 0 3.19767 10.40448 -0.98989 -2.3289 -41.88477 1.11112 3.59655 32.95953 -12.98338 3.50643 11.62513 84.36035 1.78169 1.58279 34.73237 4.87024 -0.23362 9.00539 -77.11402 -3.78658 -1.0758 1.27515 4.75777 17.69056 -19.4642 11.3138 -8.79368 -11.41569 0.03789 -5.24452 -9.62065 -14.56352 8.47757 6.72373 10.62277
-0.00817 0.57835 0.00015 179.58153 0 3.16682 9.83822 -0.97042 -2.51867 -40.65598 1.29884 3.76839 31.67882 -13.24099 3.09188 12.04757 84.43108 1.8092 1.29618 33.4967 4.71153 -0.24933 9.32205 -77.31385 -3.6035 -0.77323 1.31558 4.74148 17.61657 -19.47995 11.36469 -8.81596 -11.34388 0.16453 -5.27107 -9.65557 -14.73377 8.5081 6.75241 10.66158
-0.00785 0.57829 0.00054 179.63028 0 3.13298 9.33285 -0.9323 -2.76227 -39.85983 1.38429 4.03147 30.77682 -13.4033 2.36343 12.50892 84.46069 1.77746 0.94171 32.6213 4.51697 -0.15114 9.72649 -77.47156 -3.47448 -0.36387 1.3608 4.73406 17.55764 -19.52245 11.43828 -8.86037 -11.27936 0.31087 -5.30309 -9.71192 -14.96344 8.57489 6.80018 10.72997
-0.00731 0.57831 0.00096 179.69416 0 3.10218 8.64351 -0.92997 -2.90167 -37.89298 1.70936 4.1084 28.82267 -13.78654 2.27718 12.92118 84.57228 1.86307 0.70825 30.73858 4.3847 -0.29051 9.97007 -77.71998 -3.23335 -0.14787 1.39942 4.70704 17.45769 -19.50171 11.46001 -8.85295 -11.19193 0.42417 -5.32265 -9.72358 -15.07055 8.55981 6.80312 10.7336
-0.00621 0.57857 0.00141 179.80214 0 3.08208 7.47719 -1.03414 -2.75325 -32.85229 2.70944 3.6785 24.10129 -14.77505 3.97607 13.16612 84.92431 2.30539 0.83879 26.21821 4.41303 -1.20185 9.74533 -78.26097 -2.62655 -0.52003 1.40912 4.62582 17.25274 -19.28953 11.33258 -8.7006 -11.05097 0.4384 -5.30489 -9.60963 -14.82632 8.3149 6.68463 10.55444
-0.00492 0.5789 0.00188 179.9234 0 3.06565 6.14087 -1.17369 -2.49758 -26.69764 3.93802 3.05938 18.38672 -15.97798 6.32057 13.35721 85.35595 2.86025 1.09187 20.74641 4.51081 -2.32844 9.35689 -78.88324 -1.91988 -1.08415 1.4129 4.52536 17.00848 -19.01982 11.15573 -8.49855 -10.88812 0.41794 -5.27553 -9.45115 -14.46103 7.99079 6.52224 10.31186
-0.00375 0.57919 0.00235 180.03372 0 3.0482 4.901 -1.29383 -2.28417 -21.12754 5.03271 2.51695 13.21317 -17.07041 8.37425 13.57237 85.74313 3.34367 1.2823 15.78736 4.5948 -3.26736 9.04385 -79.43321 -1.30075 -1.54281 1.42517 4.4347 16.78288 -18.79469 11.00914 -8.32453 -10.73355 0.41345 -5.25429 -9.31493 -14.15988 7.71028 6.38175 10.10371
-0.00242 0.57951 0.00278 180.16513 0 3.0276 3.56728 -1.428 -2.09677 -15.17135 6.2589 2.00932 7.60997 -18.22444 10.42753 13.79325 86.16695 3.91283 1.49975 10.43816 4.60298 -4.57699 8.72642 -80.12973 -0.5028 -2.07826 1.41492 4.3394 16.55122 -18.49166 10.82917 -8.12625 -10.58328 0.4103 -5.22088 -9.17058 -13.82077 7.39631 6.23221 9.87221
-0.0014 0.57978 0.0033 180.25594 0 3.01453 2.39705 -1.54105 -1.8326 -9.78911 7.26358 1.39058 2.69522 -19.29606 12.62016 13.98844 86.5311 4.3298 1.6905 5.70568 4.7846 -5.17831 8.38222 -80.54496 -0.05372 -2.49631 1.44806 4.24922 16.32499 -18.336 10.70682 -7.9675 -10.42132 0.3944 -5.21006 -9.03204 -13.53127 7.13398 6.09149 9.67338
-0.00118 0.57985 0.00401 180.22744 0 3.02206 1.6778 -1.59087 -1.35383 -6.10649 7.60139 0.45486 -0.19379 -20.11815 15.17185 14.11869 86.73087 4.30274 1.78228 2.78125 5.44272 -3.65505 7.96842 -80.11824 -0.59375 -2.58334 1.61955 4.17833 16.10937 -18.61758 10.7601 -7.92647 -10.21466 0.36269 -5.26524 -8.9259 -13.41504 7.03087 5.98516 9.59043
-0.00129 0.57986 0.0048 180.15832 0 3.03702 1.13843 -1.61755 -0.80689 -3.07652 7.70737 -0.57547 -2.32685 -20.84327 17.8164 14.22549 86.86428 4.11805 1.84208 0.54058 6.26979 -1.43319 7.53965 -79.41331 -1.48716 -2.53995 1.83179 4.11318 15.9032 -19.04706 10.87259 -7.92791 -10.00032 0.31726 -5.34354 -8.82655 -13.3521 6.98331 5.88964 9.54113
-0.0013 0.57989 0.00557 180.11019 0 3.04814 0.54511 -1.65246 -0.30963 0.14461 7.91871 -1.52587 -4.72401 -21.5928 20.33287 14.34719 87.01489 4.00298 1.91428 -1.92495 7.01128 0.39346 7.1406 -78.86602 -2.21939 -2.52877 2.01394 4.04518 15.70228 -19.39792 10.95486 -7.91216 -9.80146 0.27059 -5.41059 -8.72001 -13.2599 6.91204 5.7895 9.46936
-0.00107 0.57993 0.00629 180.05161 0 3.06117 -0.17312 -1.69835 0.2711 3.85591 8.13911 -2.63975 -7.49622 -22.43457 23.23722 14.44968 87.22243 3.89999 2.00126 -4.79056 7.79555 2.542 6.63872 -78.19224 -2.95492 -2.63301 2.24424 3.97762 15.4604 -19.79326 11.04835 -7.88503 -9.55178 0.25374 -5.47985 -8.62757 -13.18308 6.83076 5.6858 9.42403
